<svg id="Layer_1" data-name="Layer 1" xmlns="http://www.w3.org/2000/svg" width="144.7" height="144.8" viewBox="0 0 144.7 144.8"><defs><style>.cls-1,.cls-5,.cls-6{fill:none;}.cls-2{fill:#f24a6f;}.cls-3{fill:#f3935f;}.cls-4{opacity:0.5;}.cls-5,.cls-6{stroke:#f24a6f;stroke-miterlimit:10;stroke-width:2px;}.cls-6{stroke-dasharray:3.04 4.06;}.cls-7{fill:#dd2c2c;}</style></defs><title>Tapita-icon</title><rect class="cls-1" y="0.1" width="103.4" height="103.4"/><polygon class="cls-2" points="0 23.5 0 0.1 23.4 0.1 0 23.5"/><path class="cls-3" d="M23.4.1h97.9a23.43,23.43,0,0,1,23.4,23.4h0a23.43,23.43,0,0,1-23.4,23.4H23.4A23.43,23.43,0,0,1,0,23.5H0A23.43,23.43,0,0,1,23.4.1Z"/><path class="cls-3" d="M23.4,46.9H46.8V23.5A23.4,23.4,0,1,0,0,23.5H0A23.43,23.43,0,0,0,23.4,46.9Z"/><circle class="cls-2" cx="77.9" cy="79.1" r="26.2"/><g class="cls-4"><path class="cls-5" d="M102,54.7a10,10,0,0,1,1,1.1"/><path class="cls-6" d="M105.6,58.9a34.29,34.29,0,0,1-48,47.9"/><path class="cls-5" d="M56,105.6a5.24,5.24,0,0,1-1.1-1"/></g><path class="cls-2" d="M46.8,23.5v97.9a23.43,23.43,0,0,1-23.4,23.4h0A23.43,23.43,0,0,1,0,121.4V23.5A23.43,23.43,0,0,1,23.4.1h0A23.43,23.43,0,0,1,46.8,23.5Z"/><circle class="cls-2" cx="54.9" cy="105.3" r="4"/><path class="cls-7" d="M23.4,46.7H46.8V23.3A23.34,23.34,0,0,0,23.4,0h0A23.43,23.43,0,0,0,0,23.4H0A23.34,23.34,0,0,0,23.4,46.7Z"/></svg>