<?xml version="1.0" encoding="utf-8"?>
<!-- Generator: Adobe Illustrator 22.0.0, SVG Export Plug-In . SVG Version: 6.00 Build 0)  -->
<svg version="1.1" id="Layer_1" xmlns="http://www.w3.org/2000/svg" xmlns:xlink="http://www.w3.org/1999/xlink" x="0px" y="0px"
	 viewBox="0 0 688.5 187" style="enable-background:new 0 0 688.5 187;" xml:space="preserve">
<style type="text/css">
	.st0{fill:#F7C945;}
	.st1{fill:none;}
	.st2{fill:#0A073A;}
	.st3{fill:#FFFFFF;}
	.st4{fill:#0D0D49;}
	.st5{opacity:0.1;fill:#F24A6F;}
	.st6{opacity:0.4;fill:#F24A6F;}
	.st7{fill:#F24A6F;}
	.st8{fill:#F3935F;}
	.st9{opacity:0.5;}
	.st10{fill:none;stroke:#FFFFFF;stroke-width:2;stroke-miterlimit:10;}
	.st11{fill:none;stroke:#FFFFFF;stroke-width:2;stroke-miterlimit:10;stroke-dasharray:3.0443,4.059;}
	.st12{fill:#FFF8FB;}
	.st13{fill:#FFD4E4;}
	.st14{fill:none;stroke:#F24A6F;stroke-width:2;stroke-miterlimit:10;}
	.st15{fill:none;stroke:#F24A6F;stroke-width:2;stroke-miterlimit:10;stroke-dasharray:3.0443,4.059;}
	.st16{fill:#DD2C2C;}
</style>
<g>
	<rect x="22.2" y="18.1" class="st1" width="103.4" height="103.4"/>
	<g>
		<g>
			<path class="st4" d="M237,50.8h-35.4V34h90.7v16.8h-35.4v90.1H237V50.8z"/>
			<path class="st4" d="M359.8,67.1c6.4,5.8,9.5,14.4,9.5,26v47.8h-18V131c-2.3,3.6-5.7,6.3-10,8.2c-4.3,1.9-9.5,2.8-15.6,2.8
				s-11.4-1-16-3.1c-4.6-2.1-8.1-5-10.6-8.7c-2.5-3.7-3.7-7.9-3.7-12.6c0-7.3,2.7-13.2,8.2-17.6c5.4-4.4,14-6.6,25.7-6.6h21.1V92
				c0-5.7-1.7-10.1-5.1-13.1c-3.4-3.1-8.5-4.6-15.2-4.6c-4.6,0-9.1,0.7-13.5,2.1c-4.4,1.4-8.2,3.4-11.2,6l-7.5-13.9
				c4.3-3.3,9.4-5.7,15.4-7.5c6-1.7,12.4-2.6,19.1-2.6C344.2,58.4,353.4,61.3,359.8,67.1z M342.4,124.8c3.7-2.2,6.3-5.3,7.9-9.4
				v-9.5h-19.7c-11,0-16.5,3.6-16.5,10.8c0,3.5,1.4,6.2,4.1,8.2c2.7,2,6.6,3.1,11.4,3.1C334.4,128.1,338.6,127,342.4,124.8z"/>
			<path class="st4" d="M460.2,63.6c6.3,3.5,11.2,8.3,14.7,14.7c3.6,6.3,5.3,13.6,5.3,21.8c0,8.2-1.8,15.5-5.3,21.9
				c-3.6,6.4-8.5,11.3-14.7,14.7c-6.3,3.5-13.4,5.2-21.3,5.2c-11,0-19.7-3.7-26.1-11v39.5h-19.1V59.4h18.2v10.7
				c3.2-3.9,7-6.8,11.7-8.7c4.6-1.9,9.7-2.9,15.3-2.9C446.9,58.4,454,60.2,460.2,63.6z M454.1,118.6c4.5-4.7,6.8-10.8,6.8-18.5
				c0-7.6-2.3-13.8-6.8-18.5c-4.5-4.7-10.3-7-17.3-7c-4.6,0-8.7,1-12.4,3.1c-3.7,2.1-6.6,5.1-8.7,8.9c-2.1,3.9-3.2,8.3-3.2,13.4
				c0,5.1,1.1,9.6,3.2,13.4c2.1,3.9,5,6.8,8.7,8.9c3.7,2.1,7.8,3.1,12.4,3.1C443.8,125.6,449.6,123.3,454.1,118.6z"/>
			<path class="st4" d="M498.5,59.4h19.1v81.5h-19.1V59.4z"/>
			<path class="st4" d="M591.6,136.5c-2.2,1.8-5,3.2-8.2,4.1c-3.2,0.9-6.6,1.4-10.2,1.4c-9,0-15.9-2.3-20.8-7
				c-4.9-4.7-7.3-11.5-7.3-20.5V75.2h-13.4V60h13.4V41.3h19.1V60h21.8v15.3h-21.8V114c0,4,1,7,2.9,9.1c1.9,2.1,4.7,3.1,8.4,3.1
				c4.3,0,7.8-1.1,10.7-3.4L591.6,136.5z"/>
			<path class="st4" d="M666,67.1c6.4,5.8,9.5,14.4,9.5,26v47.8h-18V131c-2.3,3.6-5.7,6.3-10,8.2c-4.3,1.9-9.5,2.8-15.6,2.8
				c-6.1,0-11.4-1-16-3.1c-4.6-2.1-8.1-5-10.6-8.7c-2.5-3.7-3.7-7.9-3.7-12.6c0-7.3,2.7-13.2,8.2-17.6c5.4-4.4,14-6.6,25.7-6.6h21.1
				V92c0-5.7-1.7-10.1-5.1-13.1c-3.4-3.1-8.5-4.6-15.2-4.6c-4.6,0-9.1,0.7-13.5,2.1c-4.4,1.4-8.2,3.4-11.2,6l-7.5-13.9
				c4.3-3.3,9.4-5.7,15.4-7.5c6-1.7,12.4-2.6,19.1-2.6C650.5,58.4,659.6,61.3,666,67.1z M648.6,124.8c3.7-2.2,6.3-5.3,7.9-9.4v-9.5
				h-19.7c-11,0-16.5,3.6-16.5,10.8c0,3.5,1.4,6.2,4.1,8.2c2.7,2,6.6,3.1,11.5,3.1C640.6,128.1,644.9,127,648.6,124.8z"/>
		</g>
		<path class="st4" d="M499.4,42.6c-2.3-2.2-3.5-4.9-3.5-8.2c0-3.3,1.2-6,3.5-8.2c2.3-2.2,5.2-3.3,8.7-3.3c3.5,0,6.4,1,8.7,3.1
			c2.3,2.1,3.5,4.7,3.5,7.9c0,3.4-1.1,6.2-3.4,8.5c-2.3,2.3-5.2,3.4-8.8,3.4C504.6,45.9,501.7,44.8,499.4,42.6z"/>
	</g>
	<g>
		<polygon class="st7" points="22.2,41.5 22.2,18.1 45.6,18.1 		"/>
		<path class="st8" d="M45.6,18.1h97.9c12.9,0,23.4,10.5,23.4,23.4v0c0,12.9-10.5,23.4-23.4,23.4H45.6c-12.9,0-23.4-10.5-23.4-23.4
			v0C22.2,28.6,32.7,18.1,45.6,18.1z"/>
		<path class="st8" d="M45.6,64.9H69V41.5c0-12.9-10.5-23.4-23.4-23.4S22.2,28.6,22.2,41.5v0C22.2,54.4,32.7,64.9,45.6,64.9z"/>
		<circle class="st7" cx="100.1" cy="97.1" r="26.2"/>
		<g class="st9">
			<g>
				<path class="st14" d="M124.2,72.7c0.4,0.4,0.7,0.7,1,1.1"/>
				<path class="st15" d="M127.8,76.9c4.2,5.7,6.6,12.7,6.6,20.3c0,19-15.4,34.3-34.3,34.3c-7.6,0-14.6-2.5-20.3-6.7"/>
				<path class="st14" d="M78.2,123.6c-0.4-0.3-0.8-0.6-1.1-1"/>
			</g>
		</g>
		<g>
			<path class="st7" d="M69,41.5v97.9c0,12.9-10.5,23.4-23.4,23.4h0c-12.9,0-23.4-10.5-23.4-23.4V41.5c0-12.9,10.5-23.4,23.4-23.4h0
				C58.5,18.1,69,28.6,69,41.5z"/>
		</g>
	</g>
	<circle class="st7" cx="77.1" cy="123.3" r="4"/>
</g>
<path class="st16" d="M45.6,64.7H69V41.3C69,28.4,58.5,18,45.6,18h0c-12.9,0-23.4,10.5-23.4,23.4v0C22.2,54.3,32.7,64.7,45.6,64.7z"
	/>
</svg>
